<mxfile host="app.diagrams.net" modified="2024-04-28T16:02:41.674Z" agent="Mozilla/5.0 (Windows NT 10.0; Win64; x64) AppleWebKit/537.36 (KHTML, like Gecko) Chrome/124.0.0.0 Safari/537.36" etag="lHAKrn-5lmz84rWdJPYA" version="24.3.1" type="google">
  <diagram name="Page-1" id="s8k6H9cBIfNWUPBJ0RBl">
    <mxGraphModel grid="1" page="1" gridSize="10" guides="1" tooltips="1" connect="1" arrows="1" fold="1" pageScale="1" pageWidth="850" pageHeight="1100" math="0" shadow="0">
      <root>
        <mxCell id="0" />
        <mxCell id="1" parent="0" />
        <mxCell id="CA63-ng380Ij6-Dl1s6w-1" value="Pasien" style="shape=umlActor;verticalLabelPosition=top;verticalAlign=bottom;html=1;outlineConnect=0;labelPosition=center;align=center;" vertex="1" parent="1">
          <mxGeometry x="180" y="160" width="30" height="60" as="geometry" />
        </mxCell>
        <mxCell id="CA63-ng380Ij6-Dl1s6w-2" value="" style="rounded=0;whiteSpace=wrap;html=1;" vertex="1" parent="1">
          <mxGeometry x="250" y="40" width="340" height="190" as="geometry" />
        </mxCell>
        <mxCell id="CA63-ng380Ij6-Dl1s6w-6" style="edgeStyle=orthogonalEdgeStyle;rounded=0;orthogonalLoop=1;jettySize=auto;html=1;entryX=0;entryY=0.5;entryDx=0;entryDy=0;" edge="1" parent="1" source="CA63-ng380Ij6-Dl1s6w-3" target="CA63-ng380Ij6-Dl1s6w-5">
          <mxGeometry relative="1" as="geometry">
            <Array as="points">
              <mxPoint x="295" y="130" />
            </Array>
          </mxGeometry>
        </mxCell>
        <mxCell id="CA63-ng380Ij6-Dl1s6w-8" style="edgeStyle=orthogonalEdgeStyle;rounded=0;orthogonalLoop=1;jettySize=auto;html=1;entryX=0;entryY=0.5;entryDx=0;entryDy=0;" edge="1" parent="1" source="CA63-ng380Ij6-Dl1s6w-3" target="CA63-ng380Ij6-Dl1s6w-7">
          <mxGeometry relative="1" as="geometry" />
        </mxCell>
        <mxCell id="CA63-ng380Ij6-Dl1s6w-3" value="daftar" style="ellipse;whiteSpace=wrap;html=1;" vertex="1" parent="1">
          <mxGeometry x="270" y="175" width="50" height="30" as="geometry" />
        </mxCell>
        <mxCell id="CA63-ng380Ij6-Dl1s6w-4" value="" style="endArrow=classic;html=1;rounded=0;exitX=0.5;exitY=0.5;exitDx=0;exitDy=0;exitPerimeter=0;" edge="1" parent="1" source="CA63-ng380Ij6-Dl1s6w-1" target="CA63-ng380Ij6-Dl1s6w-3">
          <mxGeometry width="50" height="50" relative="1" as="geometry">
            <mxPoint x="210" y="110" as="sourcePoint" />
            <mxPoint x="230" y="210" as="targetPoint" />
          </mxGeometry>
        </mxCell>
        <mxCell id="CA63-ng380Ij6-Dl1s6w-5" value="notifikasi" style="ellipse;whiteSpace=wrap;html=1;" vertex="1" parent="1">
          <mxGeometry x="340" y="110" width="70" height="40" as="geometry" />
        </mxCell>
        <mxCell id="CA63-ng380Ij6-Dl1s6w-7" value="informasi" style="ellipse;whiteSpace=wrap;html=1;" vertex="1" parent="1">
          <mxGeometry x="340" y="170" width="70" height="40" as="geometry" />
        </mxCell>
        <mxCell id="CA63-ng380Ij6-Dl1s6w-9" value="CRUD account" style="ellipse;whiteSpace=wrap;html=1;" vertex="1" parent="1">
          <mxGeometry x="460" y="110" width="110" height="40" as="geometry" />
        </mxCell>
        <mxCell id="CA63-ng380Ij6-Dl1s6w-10" value="cetak laporan" style="ellipse;whiteSpace=wrap;html=1;" vertex="1" parent="1">
          <mxGeometry x="460" y="170" width="110" height="40" as="geometry" />
        </mxCell>
        <mxCell id="CA63-ng380Ij6-Dl1s6w-12" style="edgeStyle=orthogonalEdgeStyle;rounded=0;orthogonalLoop=1;jettySize=auto;html=1;entryX=1;entryY=0.5;entryDx=0;entryDy=0;" edge="1" parent="1" source="CA63-ng380Ij6-Dl1s6w-11" target="CA63-ng380Ij6-Dl1s6w-10">
          <mxGeometry relative="1" as="geometry" />
        </mxCell>
        <mxCell id="CA63-ng380Ij6-Dl1s6w-13" style="edgeStyle=orthogonalEdgeStyle;rounded=0;orthogonalLoop=1;jettySize=auto;html=1;entryX=1;entryY=0.5;entryDx=0;entryDy=0;" edge="1" parent="1" source="CA63-ng380Ij6-Dl1s6w-11" target="CA63-ng380Ij6-Dl1s6w-9">
          <mxGeometry relative="1" as="geometry">
            <Array as="points">
              <mxPoint x="645" y="130" />
            </Array>
          </mxGeometry>
        </mxCell>
        <mxCell id="CA63-ng380Ij6-Dl1s6w-11" value="Admin" style="shape=umlActor;verticalLabelPosition=bottom;verticalAlign=top;html=1;outlineConnect=0;labelPosition=center;align=center;" vertex="1" parent="1">
          <mxGeometry x="630" y="160" width="30" height="60" as="geometry" />
        </mxCell>
        <mxCell id="CA63-ng380Ij6-Dl1s6w-14" value="Aplikasi Rumah Sakit" style="text;html=1;align=center;verticalAlign=middle;whiteSpace=wrap;rounded=0;" vertex="1" parent="1">
          <mxGeometry x="350" y="40" width="140" height="30" as="geometry" />
        </mxCell>
      </root>
    </mxGraphModel>
  </diagram>
</mxfile>
